<?xml version="1.0" encoding="UTF-8" standalone="no"?><svg xmlns="http://www.w3.org/2000/svg" xmlns:xlink="http://www.w3.org/1999/xlink" contentScriptType="application/ecmascript" contentStyleType="text/css" height="317px" preserveAspectRatio="none" style="width:267px;height:317px;" version="1.1" viewBox="0 0 267 317" width="267px" zoomAndPan="magnify"><defs><filter height="300%" id="fplesl762g5ho" width="300%" x="-1" y="-1"><feGaussianBlur result="blurOut" stdDeviation="2.0"/><feColorMatrix in="blurOut" result="blurOut2" type="matrix" values="0 0 0 0 0 0 0 0 0 0 0 0 0 0 0 0 0 0 .4 0"/><feOffset dx="4.0" dy="4.0" in="blurOut2" result="blurOut3"/><feBlend in="SourceGraphic" in2="blurOut3" mode="normal"/></filter></defs><g><!--class JetsonNano--><rect fill="#FEFECE" filter="url(#fplesl762g5ho)" height="48" id="JetsonNano" style="stroke: #A80036; stroke-width: 1.5;" width="104" x="6" y="133"/><ellipse cx="21" cy="149" fill="#ADD1B2" rx="11" ry="11" style="stroke: #A80036; stroke-width: 1.0;"/><path d="M23.9688,154.6406 Q23.3906,154.9375 22.75,155.0781 Q22.1094,155.2344 21.4063,155.2344 Q18.9063,155.2344 17.5781,153.5938 Q16.2656,151.9375 16.2656,148.8125 Q16.2656,145.6875 17.5781,144.0313 Q18.9063,142.375 21.4063,142.375 Q22.1094,142.375 22.75,142.5313 Q23.4063,142.6875 23.9688,142.9844 L23.9688,145.7031 Q23.3438,145.125 22.75,144.8594 Q22.1563,144.5781 21.5313,144.5781 Q20.1875,144.5781 19.5,145.6563 Q18.8125,146.7188 18.8125,148.8125 Q18.8125,150.9063 19.5,151.9844 Q20.1875,153.0469 21.5313,153.0469 Q22.1563,153.0469 22.75,152.7813 Q23.3438,152.5 23.9688,151.9219 L23.9688,154.6406 Z "/><text fill="#000000" font-family="sans-serif" font-size="12" lengthAdjust="spacingAndGlyphs" textLength="72" x="35" y="153.1543">JetsonNano</text><line style="stroke: #A80036; stroke-width: 1.5;" x1="7" x2="109" y1="165" y2="165"/><line style="stroke: #A80036; stroke-width: 1.5;" x1="7" x2="109" y1="173" y2="173"/><!--class Camera--><rect fill="#FEFECE" filter="url(#fplesl762g5ho)" height="48" id="Camera" style="stroke: #A80036; stroke-width: 1.5;" width="80" x="176" y="133"/><ellipse cx="191" cy="149" fill="#ADD1B2" rx="11" ry="11" style="stroke: #A80036; stroke-width: 1.0;"/><path d="M193.9688,154.6406 Q193.3906,154.9375 192.75,155.0781 Q192.1094,155.2344 191.4063,155.2344 Q188.9063,155.2344 187.5781,153.5938 Q186.2656,151.9375 186.2656,148.8125 Q186.2656,145.6875 187.5781,144.0313 Q188.9063,142.375 191.4063,142.375 Q192.1094,142.375 192.75,142.5313 Q193.4063,142.6875 193.9688,142.9844 L193.9688,145.7031 Q193.3438,145.125 192.75,144.8594 Q192.1563,144.5781 191.5313,144.5781 Q190.1875,144.5781 189.5,145.6563 Q188.8125,146.7188 188.8125,148.8125 Q188.8125,150.9063 189.5,151.9844 Q190.1875,153.0469 191.5313,153.0469 Q192.1563,153.0469 192.75,152.7813 Q193.3438,152.5 193.9688,151.9219 L193.9688,154.6406 Z "/><text fill="#000000" font-family="sans-serif" font-size="12" lengthAdjust="spacingAndGlyphs" textLength="48" x="205" y="153.1543">Camera</text><line style="stroke: #A80036; stroke-width: 1.5;" x1="177" x2="255" y1="165" y2="165"/><line style="stroke: #A80036; stroke-width: 1.5;" x1="177" x2="255" y1="173" y2="173"/><!--class IMUunit--><rect fill="#FEFECE" filter="url(#fplesl762g5ho)" height="48" id="IMUunit" style="stroke: #A80036; stroke-width: 1.5;" width="78" x="19" y="8"/><ellipse cx="34" cy="24" fill="#ADD1B2" rx="11" ry="11" style="stroke: #A80036; stroke-width: 1.0;"/><path d="M36.9688,29.6406 Q36.3906,29.9375 35.75,30.0781 Q35.1094,30.2344 34.4063,30.2344 Q31.9063,30.2344 30.5781,28.5938 Q29.2656,26.9375 29.2656,23.8125 Q29.2656,20.6875 30.5781,19.0313 Q31.9063,17.375 34.4063,17.375 Q35.1094,17.375 35.75,17.5313 Q36.4063,17.6875 36.9688,17.9844 L36.9688,20.7031 Q36.3438,20.125 35.75,19.8594 Q35.1563,19.5781 34.5313,19.5781 Q33.1875,19.5781 32.5,20.6563 Q31.8125,21.7188 31.8125,23.8125 Q31.8125,25.9063 32.5,26.9844 Q33.1875,28.0469 34.5313,28.0469 Q35.1563,28.0469 35.75,27.7813 Q36.3438,27.5 36.9688,26.9219 L36.9688,29.6406 Z "/><text fill="#000000" font-family="sans-serif" font-size="12" lengthAdjust="spacingAndGlyphs" textLength="46" x="48" y="28.1543">IMUunit</text><line style="stroke: #A80036; stroke-width: 1.5;" x1="20" x2="96" y1="40" y2="40"/><line style="stroke: #A80036; stroke-width: 1.5;" x1="20" x2="96" y1="48" y2="48"/><!--class Display--><rect fill="#FEFECE" filter="url(#fplesl762g5ho)" height="48" id="Display" style="stroke: #A80036; stroke-width: 1.5;" width="76" x="20" y="258"/><ellipse cx="35" cy="274" fill="#ADD1B2" rx="11" ry="11" style="stroke: #A80036; stroke-width: 1.0;"/><path d="M37.9688,279.6406 Q37.3906,279.9375 36.75,280.0781 Q36.1094,280.2344 35.4063,280.2344 Q32.9063,280.2344 31.5781,278.5938 Q30.2656,276.9375 30.2656,273.8125 Q30.2656,270.6875 31.5781,269.0313 Q32.9063,267.375 35.4063,267.375 Q36.1094,267.375 36.75,267.5313 Q37.4063,267.6875 37.9688,267.9844 L37.9688,270.7031 Q37.3438,270.125 36.75,269.8594 Q36.1563,269.5781 35.5313,269.5781 Q34.1875,269.5781 33.5,270.6563 Q32.8125,271.7188 32.8125,273.8125 Q32.8125,275.9063 33.5,276.9844 Q34.1875,278.0469 35.5313,278.0469 Q36.1563,278.0469 36.75,277.7813 Q37.3438,277.5 37.9688,276.9219 L37.9688,279.6406 Z "/><text fill="#000000" font-family="sans-serif" font-size="12" lengthAdjust="spacingAndGlyphs" textLength="44" x="49" y="278.1543">Display</text><line style="stroke: #A80036; stroke-width: 1.5;" x1="21" x2="95" y1="290" y2="290"/><line style="stroke: #A80036; stroke-width: 1.5;" x1="21" x2="95" y1="298" y2="298"/><!--link JetsonNano to Camera--><path d="M110.17,157 C129.73,157 151.77,157 170.66,157 " fill="none" id="JetsonNano-Camera" style="stroke: #A80036; stroke-width: 1.0;"/><polygon fill="#A80036" points="175.9,157,166.9,153,170.9,157,166.9,161,175.9,157" style="stroke: #A80036; stroke-width: 1.0;"/><text fill="#000000" font-family="sans-serif" font-size="13" lengthAdjust="spacingAndGlyphs" textLength="29" x="128.5" y="150.0669">CSI2</text><!--link IMUunit to JetsonNano--><path d="M58,56.14 C58,76.49 58,106.19 58,127.91 " fill="none" id="IMUunit-JetsonNano" style="stroke: #A80036; stroke-width: 1.0;"/><polygon fill="#A80036" points="58,132.97,62,123.97,58,127.97,54,123.97,58,132.97" style="stroke: #A80036; stroke-width: 1.0;"/><text fill="#000000" font-family="sans-serif" font-size="13" lengthAdjust="spacingAndGlyphs" textLength="20" x="59" y="99.0669">I2C</text><!--link JetsonNano to Display--><path d="M58,181.14 C58,201.49 58,231.19 58,252.91 " fill="none" id="JetsonNano-Display" style="stroke: #A80036; stroke-width: 1.0;"/><polygon fill="#A80036" points="58,257.97,62,248.97,58,252.97,54,248.97,58,257.97" style="stroke: #A80036; stroke-width: 1.0;"/><text fill="#000000" font-family="sans-serif" font-size="13" lengthAdjust="spacingAndGlyphs" textLength="20" x="59" y="224.0669">SPI</text><!--
@startuml SimpleDesign
JetsonNano->Camera : CSI2 
IMUunit-down-> JetsonNano: I2C 
JetsonNano-down->Display: SPI
@enduml

PlantUML version 1.2018.13(Mon Nov 26 12:11:51 EST 2018)
(GPL source distribution)
Java Runtime: OpenJDK Runtime Environment
JVM: OpenJDK 64-Bit Server VM
Java Version: 11.0.10+9-Ubuntu-0ubuntu1.20.04
Operating System: Linux
OS Version: 5.8.0-43-generic
Default Encoding: UTF-8
Language: en
Country: US
--></g></svg>